Coordinates
version=1
nRows=11
nColumns=36
inDegrees=yes

Units are S.I. units (second, meters, Newtons, ...)
If the header above contains a line with 'inDegrees', this indicates whether rotational values are in degrees (yes) or radians (no).

endheader
time	pelvis_tilt	pelvis_list	pelvis_rotation	pelvis_tx	pelvis_ty	pelvis_tz	hip_flexion_r	hip_adduction_r	hip_rotation_r	knee_angle_r	knee_angle_r_beta	ankle_angle_r	subtalar_angle_r	mtp_angle_r	hip_flexion_l	hip_adduction_l	hip_rotation_l	knee_angle_l	knee_angle_l_beta	ankle_angle_l	subtalar_angle_l	mtp_angle_l	lumbar_extension	lumbar_bending	lumbar_rotation	arm_flex_r	arm_add_r	arm_rot_r	elbow_flex_r	pro_sup_r	arm_flex_l	arm_add_l	arm_rot_l	elbow_flex_l	pro_sup_l
      4.35000000	     -8.83331537	      2.38664148	     -2.13498206	      0.82365869	      1.00977619	     -0.06336573	     16.07829968	     -8.11030976	     -3.88215574	     13.77618521	      0.24043979	    -16.83055356	     -6.48523964	     -7.49999987	     17.36779939	     -7.17946058	     -8.12485569	     16.02310490	      0.27965594	    -12.11293434	     -3.35928583	     -7.49999987	     -9.94243941	      3.71286294	     -6.68510453	    188.70976502	   -157.48776285	    219.22855285	     41.44681466	     72.10139098	     -6.06360134	    -27.26228477	   -335.09620569	     47.38989595	     59.73496313
      4.36666670	     -7.81774314	      2.06599524	     -2.08432555	      0.81520717	      0.96127189	     -0.06868859	     17.41401281	     -8.13164369	     -3.38737760	     18.84857496	      0.32896969	    -10.57337934	     -8.47503825	     -7.49999987	     18.29553200	     -7.79505017	     -6.52611194	     20.60613837	      0.35964496	     -7.25733843	     -4.36099576	     -7.49999987	    -12.21104350	      4.44569679	     -5.55624452	    191.50636712	   -157.36838795	    217.51751362	     42.85644495	     71.34263009	     -2.52921027	    -27.73203334	   -336.02231663	     49.93757779	     60.00345292
      4.38333330	     -7.03758356	      2.21353824	     -2.41189908	      0.80523697	      0.92157417	     -0.07336599	     20.35311621	     -8.78378988	     -2.11668810	     26.94324404	      0.47024832	     -0.27359956	    -10.97114677	     -7.49999987	     21.28280355	     -8.02112151	     -5.40956401	     28.78217848	      0.50234378	      1.11992077	     -6.68569436	     -7.49999987	    -15.26041513	      4.75937104	     -6.19831646	    195.46639188	   -158.35224381	    213.55352754	     44.30163364	     79.69591410	     -1.97308530	    -26.99934603	   -344.54754298	     54.50877366	     67.19687642
      4.40000000	     -6.50852723	      2.34201713	     -2.44024946	      0.79144187	      0.87759641	     -0.07943593	     26.13819370	     -9.63560000	     -0.86387733	     38.26481368	      0.66784699	     11.19072657	    -13.42227358	     -7.49999987	     26.08392656	     -8.38084894	     -5.28865113	     38.93986950	      0.67962893	     12.03012677	     -7.61920082	     -7.49999987	    -18.60566189	      4.93710951	     -4.44550443	    199.40791101	   -157.88904280	    211.03048663	     47.43179069	     75.98097506	      3.82365829	    -27.48599944	   -344.16444103	     57.90040309	     66.02560468
      4.41666670	     -6.90051953	      2.49158153	     -2.09825762	      0.78416375	      0.85887296	     -0.07585861	     32.81563556	    -10.33962343	      0.31781830	     49.56147421	      0.86501091	     21.28537700	    -13.43431543	     -7.49999987	     32.07372362	     -8.93354578	     -4.81835258	     48.99106111	      0.85505532	     21.16116677	     -7.62851001	     -7.49999987	    -22.03382638	      4.93282303	     -4.44284881	    203.07487335	   -159.37994547	    205.10392642	     50.89368062	     86.20221309	      7.40946984	    -26.68806651	   -349.36712594	     61.80169492	     74.23035537
      4.43333330	     -7.89915658	      2.52686558	     -1.57322718	      0.76917028	      0.81883963	     -0.08351073	     41.20541366	    -11.39212334	      1.16482145	     61.35488661	      1.07084478	     29.48247131	    -11.90152186	     -7.49999987	     40.38743342	     -9.56406029	     -3.87133095	     60.69720843	      1.05936613	     29.57089134	     -6.23386406	     -7.49999987	    -24.91039934	      5.09188785	     -3.84954781	    208.17726712	   -159.43414736	    203.85799393	     54.86767556	     86.36039062	     12.54193123	    -26.36527826	   -350.65945113	     66.33707566	     74.60411601
      4.45000000	     -9.94569365	      2.41513004	     -0.92414267	      0.75920990	      0.78761804	     -0.08104654	     49.78571566	    -12.04432785	      1.87936792	     71.48711183	      1.24768547	     35.02434683	    -10.82948982	     -7.49999987	     49.08733434	    -10.14535018	     -2.22991282	     70.80647055	      1.23580604	     34.95583008	     -4.90381676	     -7.49999987	    -27.11836577	      4.94263700	     -3.84829746	    209.73039400	   -160.12642995	    199.10615189	     60.72925992	     86.71905836	     16.83294736	    -25.00149348	   -354.11904753	     71.16702709	     75.24355995
      4.46666670	    -12.11887210	      2.27232174	     -0.06620691	      0.74967956	      0.75277260	     -0.08201908	     58.12090576	    -12.92185421	      2.25781255	     80.50783442	      1.40512678	     39.06557571	     -8.93307781	     -7.49999987	     57.45730593	    -10.60530513	     -0.48724014	     79.29003536	      1.38387218	     39.65902165	     -2.12377316	     -7.49999987	    -28.23469624	      4.87003746	     -4.22418551	    213.28414679	   -161.22181939	    197.84676892	     64.37351728	     86.92183280	     21.92588274	    -24.23585309	   -354.48803261	     73.30852001	     75.53773430
      4.48333330	    -14.93724743	      2.36760206	      0.55202113	      0.75878209	      0.72564103	     -0.08199159	     64.49929184	    -13.93139348	      2.76123823	     86.54024581	      1.51041222	     42.03887561	     -6.80189122	     -7.49999987	     64.52722365	    -11.20895257	      0.45493321	     85.78645080	      1.49725602	     41.90525175	     -0.30293205	     -7.49999987	    -28.04923532	      4.71308693	     -4.36159257	    213.73845289	   -162.81650268	    194.45920976	     68.60746850	     88.04151998	     24.74634607	    -21.96848228	   -356.16860827	     74.13775551	     76.37928032
      4.50000000	    -17.65346067	      2.77688551	      0.98643698	      0.75542260	      0.70619530	     -0.07692732	     69.68514563	    -14.46596447	      3.35348667	     90.19816081	      1.57425489	     44.07884479	     -5.07780697	     -7.49999987	     69.64001102	    -12.36079322	      0.20516592	     89.24547528	      1.55762739	     43.93341294	      2.84672544	     -7.49999987	    -27.79255174	      3.28575424	     -2.49256100	    211.94249528	   -163.52229926	    188.40480880	     73.93976760	     88.78615067	     30.44904344	    -19.16417777	   -353.75753675	     71.75789327	     77.85611450
      4.51666670	    -20.59387490	      3.32247724	      0.76546025	      0.74404158	      0.69377306	     -0.07177138	     74.38283762	    -14.23929066	      4.02627434	     92.14341694	      1.60820601	     45.23476026	     -3.76337638	     -7.49999987	     73.89251727	    -13.74373569	     -0.60233790	     90.77199418	      1.58427017	     44.36469229	      5.35131986	     -7.49999987	    -27.42556643	      1.58861512	     -1.45385234	    213.31846641	   -165.37770328	    186.46002243	     74.77274646	     86.56623919	     34.29428273	    -17.09337064	   -352.86793690	     69.55649481	     76.46612398
